<?xml version="1.0" encoding="UTF-8" standalone="no"?>
<!-- Created with Inkscape (http://www.inkscape.org/) -->

<svg
   xmlns:dc="http://purl.org/dc/elements/1.1/"
   xmlns:cc="http://creativecommons.org/ns#"
   xmlns:rdf="http://www.w3.org/1999/02/22-rdf-syntax-ns#"
   xmlns:svg="http://www.w3.org/2000/svg"
   xmlns="http://www.w3.org/2000/svg"
   xmlns:sodipodi="http://sodipodi.sourceforge.net/DTD/sodipodi-0.dtd"
   xmlns:inkscape="http://www.inkscape.org/namespaces/inkscape"
   id="svg2"
   version="1.1"
   inkscape:version="0.91 r13725"
   width="47.5"
   height="76.25"
   viewBox="0 0 47.5 76.25"
   sodipodi:docname="balls.svg">
  <metadata
     id="metadata8">
    <rdf:RDF>
      <cc:Work
         rdf:about="">
        <dc:format>image/svg+xml</dc:format>
        <dc:type
           rdf:resource="http://purl.org/dc/dcmitype/StillImage" />
        <dc:title></dc:title>
      </cc:Work>
    </rdf:RDF>
  </metadata>
  <defs
     id="defs6" />
  <sodipodi:namedview
     pagecolor="#ffffff"
     bordercolor="#666666"
     borderopacity="1"
     objecttolerance="10"
     gridtolerance="10"
     guidetolerance="10"
     inkscape:pageopacity="0"
     inkscape:pageshadow="2"
     inkscape:window-width="1366"
     inkscape:window-height="719"
     id="namedview4"
     showgrid="false"
     inkscape:zoom="6.6653931"
     inkscape:cx="9.458078"
     inkscape:cy="37.15572"
     inkscape:window-x="0"
     inkscape:window-y="0"
     inkscape:window-maximized="1"
     inkscape:current-layer="svg2" />
  <path
     style="fill:#d40000;fill-opacity:1"
     d="m 6.2500001,64.650172 c -3.214159,-3.214159 -3.214159,-9.285841 0,-12.5 3.214158,-3.214159 9.2858409,-3.214159 12.4999999,0 5.410229,5.410229 1.41449,15 -6.25,15 -2.083333,0 -4.8611109,-1.111111 -6.2499999,-2.5 z"
     id="path4171"
     inkscape:export-xdpi="90"
     inkscape:export-ydpi="90" />
  <path
     style="fill:#d40000;fill-opacity:1"
     d="m 6.2500001,42.150172 c -5.41022902,-5.410229 -1.41449,-15 6.2499999,-15 4.811605,0 8.75,3.938395 8.75,8.75 0,4.811605 -3.938395,8.75 -8.75,8.75 -2.083333,0 -4.8611109,-1.111111 -6.2499999,-2.5 z"
     id="path4163"
     inkscape:export-xdpi="90"
     inkscape:export-ydpi="90" />
  <path
     style="fill:#ff4242;fill-opacity:1"
     d="m 6.2500001,64.650172 c -3.214159,-3.214159 -3.214159,-9.285841 0,-12.5 3.214158,-3.214159 9.2858409,-3.214159 12.4999999,0 5.410229,5.410229 1.41449,15 -6.25,15 -2.083333,0 -4.8611109,-1.111111 -6.2499999,-2.5 z"
     id="path4191"
     inkscape:export-xdpi="90"
     inkscape:export-ydpi="90" />
  <path
     style="fill:#d40000;fill-opacity:1"
     d="m 17.714074,63.831437 c 5.124581,-4.637681 0.774116,-12.567319 -6.004581,-10.944614 -4.8186239,1.153498 -6.7094929,2.810734 -6.7094929,5.880479 0,6.15316 7.9928479,9.336786 12.7140739,5.064135 z"
     id="path4169"
     inkscape:export-xdpi="90"
     inkscape:export-ydpi="90" />
  <path
     style="fill:#ffffff;fill-opacity:1"
     d="M 17.188084,54.337672 C 16.400555,51.972434 12.5,51.636172 12.5,53.933517 c 0,1.159544 1.068745,1.966655 2.604166,1.966655 1.527466,0 2.389069,-0.64602 2.083918,-1.5625 z"
     id="path4189"
     inkscape:export-xdpi="90"
     inkscape:export-ydpi="90" />
  <path
     style="fill:#d40000;fill-opacity:1"
     d="m 28.75,64.650172 c -5.410229,-5.410229 -1.41449,-15 6.25,-15 4.811605,0 8.75,3.938395 8.75,8.75 0,4.811605 -3.938395,8.75 -8.75,8.75 -2.083334,0 -4.861111,-1.111111 -6.25,-2.5 z"
     id="path4167"
     inkscape:export-xdpi="90"
     inkscape:export-ydpi="90" />
  <path
     style="fill:#ff4242;fill-opacity:1"
     d="m 28.75,64.650172 c -5.410229,-5.410229 -1.41449,-15 6.25,-15 4.811605,0 8.75,3.938395 8.75,8.75 0,4.811605 -3.938395,8.75 -8.75,8.75 -2.083334,0 -4.861111,-1.111111 -6.25,-2.5 z"
     id="path4187"
     inkscape:export-xdpi="90"
     inkscape:export-ydpi="90" />
  <path
     style="fill:#d40000;fill-opacity:1"
     d="m 40.535714,61.435886 c 6.120341,-6.12034 -4.285894,-14.316724 -10.749788,-8.466979 -2.805476,2.53892 -2.931525,5.857095 -0.32164,8.466979 2.526299,2.5263 8.545129,2.5263 11.071428,0 z"
     id="path4165"
     inkscape:export-xdpi="90"
     inkscape:export-ydpi="90" />
  <path
     style="fill:#ffffff;fill-opacity:1"
     d="m 38.75,54.650172 c 0,-0.6875 -0.5625,-1.25 -1.25,-1.25 -0.6875,0 -1.25,0.5625 -1.25,1.25 0,0.6875 0.5625,1.25 1.25,1.25 0.6875,0 1.25,-0.5625 1.25,-1.25 z"
     id="path4185"
     inkscape:export-xdpi="90"
     inkscape:export-ydpi="90" />
  <path
     style="fill:#ff4242;fill-opacity:1"
     d="m 6.2500001,42.150172 c -5.41022902,-5.410229 -1.41449,-15 6.2499999,-15 4.811605,0 8.75,3.938395 8.75,8.75 0,4.811605 -3.938395,8.75 -8.75,8.75 -2.083333,0 -4.8611109,-1.111111 -6.2499999,-2.5 z"
     id="path4183"
     inkscape:export-xdpi="90"
     inkscape:export-ydpi="90" />
  <path
     style="fill:#d40000;fill-opacity:1"
     d="m 18.5,40.650172 c 1.933648,-1.933648 1.933648,-7.566353 0,-9.5 -1.940582,-1.940582 -10.0594169,-1.940582 -11.9999999,0 -1.933648,1.933648 -1.933648,7.566352 0,9.5 1.940583,1.940583 10.0594179,1.940583 11.9999999,0 z"
     id="path4161"
     inkscape:export-xdpi="90"
     inkscape:export-ydpi="90" />
  <path
     style="fill:#ffffff;fill-opacity:1"
     d="m 16.25,31.525172 c 0,-1.03125 -0.529302,-1.875 -1.176229,-1.875 -1.576222,0 -2.705118,1.951986 -1.706455,2.95065 1.40773,1.40773 2.882684,0.857363 2.882684,-1.07565 z"
     id="path4181"
     inkscape:export-xdpi="90"
     inkscape:export-ydpi="90" />
  <path
     style="fill:#d40000;fill-opacity:1"
     d="m 28.75,42.150172 c -5.410229,-5.410229 -1.41449,-15 6.25,-15 4.811605,0 8.75,3.938395 8.75,8.75 0,2.083334 -1.111111,4.861111 -2.5,6.25 -1.388889,1.388889 -4.166666,2.5 -6.25,2.5 -2.083334,0 -4.861111,-1.111111 -6.25,-2.5 z"
     id="path4159"
     inkscape:export-xdpi="90"
     inkscape:export-ydpi="90" />
  <path
     style="fill:#ff4242;fill-opacity:1"
     d="m 28.75,42.150172 c -5.410229,-5.410229 -1.41449,-15 6.25,-15 4.811605,0 8.75,3.938395 8.75,8.75 0,2.083334 -1.111111,4.861111 -2.5,6.25 -1.388889,1.388889 -4.166666,2.5 -6.25,2.5 -2.083334,0 -4.861111,-1.111111 -6.25,-2.5 z"
     id="path4179"
     inkscape:export-xdpi="90"
     inkscape:export-ydpi="90" />
  <path
     style="fill:#d40000;fill-opacity:1"
     d="M 41.269459,35.251725 C 43.442755,32.633064 39.56948,28.400172 35,28.400172 c -1.849393,0 -4.371094,1.114449 -5.603781,2.476553 -3.122572,3.450403 -0.600877,6.273447 5.603781,6.273447 2.673172,0 5.372171,-0.81728 6.269459,-1.898447 z"
     id="path4155"
     inkscape:export-xdpi="90"
     inkscape:export-ydpi="90" />
  <path
     style="fill:#ffffff;fill-opacity:1"
     d="m 38.75,32.775172 c 0,-1.03125 -0.5625,-1.875 -1.25,-1.875 -0.6875,0 -1.25,0.84375 -1.25,1.875 0,1.03125 0.5625,1.875 1.25,1.875 0.6875,0 1.25,-0.84375 1.25,-1.875 z"
     id="path4177"
     inkscape:export-xdpi="90"
     inkscape:export-ydpi="90" />
  <path
     style="fill:#d40000;fill-opacity:1"
     d="m 28.75,19.650172 c -5.410229,-5.410229 -1.41449,-15 6.25,-15 4.811605,0 8.75,3.9383951 8.75,8.75 0,4.811605 -3.938395,8.75 -8.75,8.75 -2.083334,0 -4.861111,-1.111111 -6.25,-2.5 z"
     id="path4153"
     inkscape:export-xdpi="90"
     inkscape:export-ydpi="90" />
  <path
     style="fill:#ff4242;fill-opacity:1"
     d="m 28.75,19.650172 c -5.410229,-5.410229 -1.41449,-15 6.25,-15 4.811605,0 8.75,3.9383951 8.75,8.75 0,4.811605 -3.938395,8.75 -8.75,8.75 -2.083334,0 -4.861111,-1.111111 -6.25,-2.5 z"
     id="path4175"
     inkscape:export-xdpi="90"
     inkscape:export-ydpi="90" />
  <path
     style="fill:#d40000;fill-opacity:1"
     d="m 40.490547,18.54874 c 1.750531,-1.934313 1.84033,-2.654957 0.506236,-4.0625 C 40.104802,13.545152 39.375,11.368922 39.375,9.650172 c 0,-2.7235773 -0.548611,-3.125 -4.270834,-3.125 -4.970916,0 -6.520632,2.4175123 -2.342781,3.65467 l 2.863615,0.847982 -3.089712,1.248441 c -4.31069,1.741795 -5.249962,3.814843 -2.903316,6.407858 2.623479,2.898911 8.175218,2.829694 10.858575,-0.135383 z"
     id="path4140"
     inkscape:export-xdpi="90"
     inkscape:export-ydpi="90" />
  <path
     style="fill:#ffffff;fill-opacity:1"
     d="M 40,10.275172 C 40,7.649294 37.623834,6.7412877 35.457369,8.5392933 33.723196,9.9785287 33.747784,10.307091 35.696277,11.731865 38.12975,13.511263 40,12.878234 40,10.275172 Z"
     id="path4142"
     inkscape:export-xdpi="90"
     inkscape:export-ydpi="90" />
  <path
     style="fill:#d40000;fill-opacity:1"
     d="m 39.695402,41.212672 c 0.354092,-1.078641 -1.067672,-1.5625 -4.591236,-1.5625 -4.833246,0 -6.212746,0.974754 -4.211591,2.975909 1.410755,1.410755 8.235444,0.314962 8.802827,-1.413409 z"
     id="path4157"
     inkscape:export-xdpi="90"
     inkscape:export-ydpi="90" />
</svg>
